# Blender v2.92.0 OBJ File: 'shootingPlayer.blend'
# www.blender.org
mtllib shootingPlayer.mtl
o Cube
v 0.763283 3.328293 -0.826920
v 0.763283 -3.353838 -0.826920
v 0.763283 3.328293 0.826920
v 0.763283 -3.353838 0.826920
v -0.763283 3.328293 -0.826920
v -0.763283 -3.353838 -0.826920
v -0.763283 3.328293 0.826920
v -0.763283 -3.353838 0.826920
v 0.763283 0.826670 -0.826920
v -1.000000 0.819602 1.000000
v 0.763283 0.826670 0.826920
v -1.000000 0.819602 -1.000000
v 0.763283 -1.683306 -0.826920
v 0.763283 -1.683306 0.826920
v -0.763283 -1.683306 -0.826920
v -0.763283 -1.683306 0.826920
v 0.613341 5.704942 0.613341
v -0.613341 5.704942 0.613341
v 0.613341 5.704942 -0.613341
v -0.613341 5.704942 -0.613341
v 4.951766 0.826670 -0.102633
v 4.951766 0.826670 0.102633
v -4.965701 0.819602 -0.106894
v -4.965701 0.819602 0.106894
v 2.975883 0.826670 0.102633
v 2.975883 0.826670 -0.102633
v 3.963825 0.826670 0.102633
v 3.963825 0.826670 -0.102633
v 1.987942 0.826670 0.102633
v 1.987942 0.826670 -0.102633
v -1.000000 -3.353838 0.000000
v 1.000000 3.328293 0.000000
v -1.000000 3.328293 0.000000
v 1.000000 -3.353838 0.000000
v 1.000000 -0.012773 0.000000
v -1.000000 -0.012773 0.000000
v 1.000000 1.657760 0.000000
v -1.000000 1.657760 0.000000
v -1.000000 -1.683306 0.000000
v 1.000000 -1.683306 0.000000
v 1.000000 5.059868 0.000000
v -1.000000 5.059868 0.000000
v 5.979345 -0.012773 0.000000
v 4.951766 1.657760 0.000000
v -5.976111 -0.012773 0.000000
v -4.965701 1.657760 0.000000
v 2.975883 -0.012773 0.000000
v 2.975883 1.657760 0.000000
v 3.963825 -0.012773 0.000000
v 3.963825 1.657760 0.000000
v 1.987942 1.657760 0.000000
v 1.987942 -0.012773 0.000000
v -5.976111 0.822494 0.000000
v 5.969644 0.492927 0.000000
v -2.982851 0.819602 -0.106894
v -2.982851 0.819602 0.106894
v -2.982851 -0.012773 0.000000
v -2.982851 1.657760 0.000000
v -3.974276 0.819602 -0.106894
v -3.974276 0.819602 0.106894
v -3.974276 -0.012773 0.000000
v -3.974276 1.657760 0.000000
v -1.991425 0.819602 -0.106894
v -1.991425 0.819602 0.106894
v -1.991425 -0.012773 0.000000
v -1.991425 1.657760 0.000000
v 0.763283 -2.518572 -0.826920
v 0.763283 -2.518572 0.826920
v -0.763283 -2.518572 -0.826920
v -0.763283 -2.518572 0.826920
v 1.000000 -2.518572 0.000000
v -1.000000 -2.518572 0.000000
v 0.000000 -3.009951 -2.568392
v 0.000000 3.328293 1.000000
v 0.000000 -3.353838 1.000000
v 0.000000 3.328293 -1.000000
v 0.000000 0.823136 -1.000000
v 0.000000 0.823136 1.000000
v 0.000000 -1.683306 1.000000
v 0.000000 -1.683306 -1.000000
v 0.000000 5.059868 1.000000
v 0.000000 5.059868 -1.000000
v 0.000000 6.265137 0.000000
v 0.000000 -3.907129 0.000000
v 0.000000 -2.518572 -2.568392
v 0.000000 -2.518572 1.000000
v 4.991168 -0.012773 0.000000
v -4.995700 -0.012773 0.000000
v 0.000000 5.059868 1.000000
v -0.763283 5.059868 0.826920
v 1.000000 5.059868 0.000000
v 0.763283 5.059868 0.826920
v -1.000000 5.059868 0.000000
v -0.763283 5.059868 -0.826920
v 0.000000 5.059868 -1.000000
v 0.763283 5.059868 -0.826920
v 0.000000 5.704942 0.613341
v 0.613341 5.704942 0.000000
v -0.613341 5.704942 0.000000
v 0.000000 5.704942 -0.613341
v 0.500000 -3.353838 1.000000
v 0.500000 3.328293 -1.000000
v 0.500000 0.824903 -1.000000
v 0.500000 -1.683306 -1.000000
v 0.500000 5.059868 -1.000000
v 0.500000 -2.518572 -1.000000
v 0.500000 -3.353838 -1.000000
v 0.500000 3.328293 1.000000
v 0.500000 0.824903 1.000000
v 0.500000 -1.683306 1.000000
v 0.500000 5.059868 1.000000
v 0.500000 -3.703697 0.000000
v 0.500000 -2.518572 1.000000
v 0.500000 5.059868 -1.000000
v 0.500000 5.059868 1.000000
v 0.306671 5.704942 -0.613341
v 0.306671 5.704942 0.613341
v -0.500000 -3.353838 -1.000000
v -0.500000 3.328293 1.000000
v -0.500000 0.821369 1.000000
v -0.500000 -1.683306 1.000000
v -0.500000 5.059868 1.000000
v -0.500000 -3.703697 0.000000
v -0.500000 -2.518572 1.000000
v -0.500000 -3.353838 1.000000
v -0.500000 3.328293 -1.000000
v -0.500000 0.821369 -1.000000
v -0.500000 -1.683306 -1.000000
v -0.500000 5.059868 -1.000000
v -0.500000 -2.518572 -1.000000
v -0.500000 5.059868 1.000000
v -0.500000 5.059868 -1.000000
v -0.306671 5.704942 0.613341
v -0.306671 5.704942 -0.613341
v 0.000000 -3.353838 -1.000000
v 1.000000 -3.353838 -0.500000
v -1.000000 0.403415 -0.500000
v -1.000000 -1.683306 -0.500000
v -1.000000 -3.353838 -0.500000
v 1.000000 0.406948 -0.500000
v 1.000000 -1.683306 -0.500000
v 1.000000 -2.518572 -0.500000
v -1.000000 -2.518572 -0.500000
v 0.000000 -3.703697 -0.500000
v 0.500000 -3.703697 -0.500000
v -0.500000 -3.703697 -0.500000
v -1.000000 -3.353838 0.500000
v 1.000000 0.406948 0.500000
v 1.000000 -1.683306 0.500000
v 1.000000 -3.353838 0.500000
v -1.000000 0.403415 0.500000
v -1.000000 -1.683306 0.500000
v -1.000000 -2.518572 0.500000
v 1.000000 -2.518572 0.500000
v 0.000000 -3.703697 0.500000
v 0.500000 -3.703697 0.500000
v -0.500000 -3.703697 0.500000
v 1.000000 1.242215 -0.500000
v 1.000000 3.328293 -0.500000
v 1.000000 5.059868 -0.500000
v 1.000000 5.059868 -0.500000
v 0.613341 5.704942 -0.306671
v 1.000000 3.328293 0.500000
v 1.000000 5.059868 0.500000
v 1.000000 1.242215 0.500000
v 1.000000 5.059868 0.500000
v 0.613341 5.704942 0.306671
v -1.000000 3.328293 0.500000
v -1.000000 5.059868 0.500000
v -1.000000 1.238681 0.500000
v -1.000000 5.059868 0.500000
v -0.613341 5.704942 0.306671
v -1.000000 3.328293 -0.500000
v -1.000000 5.059868 -0.500000
v -1.000000 1.238681 -0.500000
v -1.000000 5.059868 -0.500000
v -0.613341 5.704942 -0.306671
vt 0.811520 0.496695
vt 0.782304 0.491941
vt 0.782304 0.349588
vt 0.811520 0.354342
vt 0.044146 0.353487
vt 0.044146 0.565731
vt 0.020740 0.566360
vt 0.000000 0.353318
vt 0.355217 0.415383
vt 0.355428 0.592121
vt 0.326184 0.593370
vt 0.311034 0.379938
vt 0.888320 0.957628
vt 0.941489 0.957628
vt 0.922648 0.985332
vt 0.901693 1.000000
vt 0.899803 0.667844
vt 0.899803 0.496346
vt 0.928310 0.491365
vt 0.928310 0.697025
vt 0.287958 0.359193
vt 0.287958 0.147270
vt 0.311034 0.146585
vt 0.311034 0.358359
vt 0.287958 0.571524
vt 0.311034 0.570839
vt 0.899803 0.211328
vt 0.899803 0.039487
vt 0.928310 0.000000
vt 0.928310 0.206346
vt 0.354921 0.168244
vt 0.355132 0.344737
vt 0.325677 0.169493
vt 0.044146 0.141433
vt 0.020740 0.142061
vt 0.044146 0.070716
vt 0.020740 0.071345
vt 0.354837 0.097598
vt 0.325592 0.098847
vt 0.899803 0.279995
vt 0.928310 0.275014
vt 0.287958 0.642233
vt 0.311034 0.641549
vt 0.487596 0.927820
vt 0.539371 0.876370
vt 0.539371 0.902357
vt 0.539371 0.928343
vt 0.199667 0.147313
vt 0.176253 0.146651
vt 0.176253 0.000066
vt 0.199667 0.000727
vt 0.132437 0.565770
vt 0.155522 0.566419
vt 0.155522 0.713020
vt 0.132437 0.712371
vt 0.443710 0.592121
vt 0.472187 0.593370
vt 0.472362 0.739825
vt 0.443885 0.738576
vt 0.590349 0.440435
vt 0.487596 0.354226
vt 0.561303 0.354285
vt 0.487596 0.270509
vt 0.561303 0.270568
vt 0.782304 0.170792
vt 0.708678 0.170660
vt 0.782304 0.083737
vt 0.708631 0.441227
vt 0.782304 0.526884
vt 0.707942 0.526948
vt 0.782304 0.610896
vt 0.707942 0.610960
vt 0.634958 0.610871
vt 0.561943 0.610998
vt 0.634958 0.524317
vt 0.782304 0.338226
vt 0.708678 0.338094
vt 0.708678 0.254377
vt 0.782304 0.254509
vt 0.487596 0.103074
vt 0.561303 0.103133
vt 0.561303 0.186850
vt 0.487596 0.186791
vt 0.487596 0.019357
vt 0.526175 0.019785
vt 0.564088 0.000000
vt 0.782304 0.421942
vt 0.634958 0.441192
vt 0.634958 0.441237
vt 0.708678 0.086944
vt 0.737700 0.000800
vt 0.782304 0.000000
vt 0.561943 0.526986
vt 0.561277 0.441270
vt 0.996625 0.111890
vt 0.974024 0.094448
vt 0.928310 0.084079
vt 0.996625 0.000000
vt 0.711613 0.441192
vt 0.673636 0.421421
vt 0.634958 0.421871
vt 0.634958 0.254437
vt 0.634958 0.170721
vt 0.634958 0.186727
vt 0.634958 0.270444
vt 0.634958 0.338154
vt 0.634958 0.103010
vt 0.634958 0.610824
vt 0.487596 0.610936
vt 0.487596 0.526923
vt 0.634958 0.357500
vt 0.634958 0.087004
vt 0.399569 0.592121
vt 0.399744 0.738576
vt 0.355604 0.738576
vt 0.207418 0.925453
vt 0.207418 0.951440
vt 0.207418 0.977426
vt 0.155522 0.926003
vt 0.811520 0.280344
vt 0.811520 0.211676
vt 0.855661 0.211502
vt 0.855661 0.280170
vt 0.443118 0.097598
vt 0.443202 0.168244
vt 0.399062 0.168244
vt 0.398977 0.097598
vt 0.443414 0.344737
vt 0.399231 0.309536
vt 0.811520 0.039835
vt 0.855661 0.074167
vt 0.811520 0.668192
vt 0.855661 0.496521
vt 0.855661 0.633856
vt 0.888320 0.872885
vt 0.941489 0.872885
vt 0.941489 0.915256
vt 0.888320 0.915256
vt 0.443498 0.415383
vt 0.399400 0.450828
vt 0.855661 0.354167
vt 0.899803 0.353993
vt 0.561943 0.779023
vt 0.487596 0.778961
vt 0.487596 0.694948
vt 0.561943 0.695011
vt 0.707942 0.778984
vt 0.634958 0.778848
vt 0.634958 0.694836
vt 0.707942 0.694972
vt 0.634958 0.778896
vt 0.634958 0.694883
vt 0.782304 0.778920
vt 0.782304 0.694908
vt 0.782304 0.862932
vt 0.743313 0.863381
vt 0.704323 0.863832
vt 0.634958 0.862908
vt 0.600168 0.863369
vt 0.565378 0.863829
vt 0.669640 0.863346
vt 0.526487 0.863401
vt 0.487596 0.862973
vt 1.000000 0.111890
vt 1.000000 0.218512
vt 0.957308 0.199708
vt 0.928310 0.200124
vt 0.634958 0.019292
vt 0.443033 0.026952
vt 0.398893 0.026952
vt 0.811520 0.349012
vt 0.855661 0.348837
vt 0.287958 0.712942
vt 0.311034 0.712257
vt 0.899803 0.348663
vt 0.928310 0.343682
vt 0.354752 0.026952
vt 0.325508 0.028201
vt 0.044146 0.000000
vt 0.020740 0.000628
vt 0.132437 0.000039
vt 0.132437 0.070755
vt 0.088291 0.070736
vt 0.088291 0.000019
vt 0.000000 0.856950
vt 0.000000 0.786304
vt 0.139273 0.783818
vt 0.139273 0.825379
vt 0.808727 0.872885
vt 0.848523 0.872885
vt 0.840747 0.915256
vt 0.808727 0.915256
vt 0.372162 0.861846
vt 0.311034 0.810516
vt 0.372162 0.809877
vt 0.372162 0.835861
vt 0.088291 0.565751
vt 0.088291 0.712351
vt 0.044146 0.712332
vt 0.243812 0.147291
vt 0.243812 0.000706
vt 0.287958 0.000684
vt 0.372162 0.757907
vt 0.372162 0.783892
vt 0.199667 0.642276
vt 0.199667 0.571567
vt 0.243812 0.571545
vt 0.132437 0.141472
vt 0.088291 0.141452
vt 0.132437 0.353825
vt 0.088291 0.353656
vt 0.199667 0.359535
vt 0.243812 0.359364
vt 0.808727 0.957628
vt 0.848523 0.957628
vt 0.861897 1.000000
vt 0.822100 1.000000
vt 0.487596 0.441237
vt 0.487596 0.441237
vt 0.487596 0.441237
vt 0.487596 0.441237
vt 0.487596 0.441237
vt 0.487596 0.441237
vt 0.487596 0.441237
vt 0.487596 0.441237
vt 0.487596 0.441237
vt 0.487596 0.441237
vt 0.487596 0.441237
vt 0.487596 0.441237
vt 0.487596 0.441237
vt 0.487596 0.441237
vt 0.487596 0.441237
vt 0.487596 0.441237
vt 0.487596 0.441237
vt 0.487596 0.441237
vt 0.487596 0.441237
vt 0.487596 0.441237
vt 0.487596 0.441237
vt 0.487596 0.441237
vt 0.487596 0.441237
vt 0.487596 0.441237
vt 0.487596 0.441237
vt 0.487596 0.441237
vt 0.487596 0.441237
vt 0.487596 0.441237
vt 0.597095 0.863828
vt 0.597761 0.886292
vt 0.430630 0.739825
vt 0.435703 0.767206
vt 0.052740 0.900860
vt 0.052740 0.874876
vt 0.110412 0.856950
vt 0.111713 0.885018
vt 0.207418 0.899466
vt 0.207418 0.873479
vt 0.265181 0.860601
vt 0.265882 0.882750
vt 0.435703 0.809572
vt 0.435703 0.851938
vt 0.052740 0.952828
vt 0.052740 0.926844
vt 0.111713 0.927383
vt 0.111713 0.969748
vt 0.539371 0.954330
vt 0.597761 0.928662
vt 0.597761 0.971031
vt 0.265882 0.925119
vt 0.265882 0.967488
vt 0.052740 0.978812
vt 0.000000 0.925944
vt 0.539371 0.980317
vt 0.597095 0.993188
vt 0.155522 0.354623
vt 0.155522 0.142121
vt 0.155522 0.071404
vt 0.311034 0.000000
vt 0.155522 0.000688
vt 0.155522 0.822596
vt 0.155522 0.782199
vt 0.294733 0.791934
vt 0.294733 0.860601
vt 0.875042 0.697601
vt 0.901693 0.830513
vt 0.861897 0.830513
vt 0.293985 0.712985
vt 0.265181 0.989960
vt 0.782304 0.957628
vt 0.801145 0.985332
vt 0.155522 0.359706
vt 0.176253 0.570905
vt 0.176253 0.641614
vt 0.020740 0.712961
vt 0.353906 0.000000
vt 0.398047 0.000000
vt 0.176253 0.712323
vt 0.199667 0.712985
vt 0.000814 0.713020
vt 0.822100 0.830513
vt 0.801145 0.845180
vt 0.782304 0.872885
vt 0.782304 0.344258
vt 0.782304 0.275590
vt 0.922648 0.845180
vt 0.782304 0.206923
vt 0.782304 0.000576
vt 0.442187 0.000000
vt 0.471510 0.028201
vt 0.471595 0.098847
vt 0.471679 0.169493
vt 0.487596 0.379938
vt 0.430630 0.879959
vt 0.782304 0.697601
vt 0.928310 0.349011
vt 0.110412 0.997079
vt 0.326359 0.739825
vn 0.8100 0.0000 -0.5865
vn -0.2210 0.0441 0.9743
vn -0.9511 0.0604 -0.3029
vn 0.4543 -0.7663 0.4543
vn 0.8100 0.0000 0.5865
vn 0.5493 0.0000 -0.8356
vn -0.9512 -0.0605 -0.3027
vn -0.2208 -0.0441 0.9743
vn -0.5493 0.0000 0.8356
vn -0.8100 0.0000 -0.5865
vn 0.0000 0.7384 0.6744
vn -0.5493 0.0000 -0.8356
vn 0.5493 0.0000 0.8356
vn -0.8100 0.0000 0.5865
vn 0.1389 0.1214 0.9828
vn 0.0000 0.1226 0.9925
vn 0.0000 -0.1214 -0.9926
vn -0.1040 0.1258 -0.9866
vn 0.0000 0.1265 -0.9920
vn 0.0000 -0.1274 0.9919
vn 0.4992 0.5355 0.6812
vn -0.1052 0.0000 -0.9945
vn 0.1010 0.0019 0.9949
vn 0.1010 0.0019 -0.9949
vn -0.1052 0.0000 0.9945
vn 0.5007 -0.5317 0.6831
vn 0.4992 0.5355 -0.6812
vn 0.0000 0.1226 -0.9925
vn 0.0000 -0.1214 0.9926
vn 0.0000 -0.1274 -0.9919
vn 0.0000 0.1265 0.9920
vn -0.1040 0.1258 0.9866
vn 0.1389 0.1214 -0.9828
vn -1.0000 0.0000 0.0000
vn 0.0000 0.7384 -0.6744
vn 1.0000 0.0000 0.0000
vn 0.5733 -0.8193 0.0000
vn -0.5009 0.6633 -0.5560
vn -0.4993 -0.6659 0.5543
vn -0.4993 -0.6659 -0.5543
vn -0.5009 0.6633 0.5560
vn 0.5007 -0.5317 -0.6831
vn 0.0000 0.0000 1.0000
vn -0.9528 0.0000 -0.3037
vn -0.1955 -0.9610 -0.1955
vn 0.6744 0.7384 0.0000
vn 0.0000 0.0000 -1.0000
vn 0.0000 -0.8193 0.5733
vn -0.2575 0.4631 0.8481
vn 0.8379 0.4472 0.3130
vn -0.8379 0.4472 -0.3130
vn 0.2575 0.4631 -0.8481
vn 0.8577 0.5141 0.0000
vn -0.8577 0.5141 0.0000
vn 0.0000 0.5141 0.8577
vn 0.0000 0.5141 -0.8577
vn -0.6744 0.7384 -0.0000
vn 0.2575 0.4631 0.8481
vn 0.9528 0.0000 -0.3037
vn 0.0000 -0.9768 -0.2142
vn 0.8276 0.4954 -0.2638
vn -0.2575 0.4631 -0.8481
vn -0.4543 -0.7663 0.4543
vn -0.2210 0.0441 -0.9743
vn -0.2208 -0.0441 -0.9743
vn -0.5733 -0.8193 0.0000
vn -0.8276 0.4954 -0.2638
vn 0.0000 -0.8193 -0.5733
vn 0.1955 -0.9610 -0.1955
vn -0.4543 -0.7663 -0.4543
vn 0.4543 -0.7663 -0.4543
vn 0.1955 -0.9610 0.1955
vn -0.1955 -0.9610 0.1955
vn -0.9512 -0.0605 0.3027
vn 0.8379 0.4472 -0.3130
vn -0.8379 0.4472 0.3130
vn -0.9511 0.0604 0.3029
usemtl PlayerMaterial
s off
f 159/1/1 1/2/1 96/3/1 160/4/1
f 120/5/2 119/6/2 7/7/2 10/8/2
f 175/9/3 173/10/3 5/11/3 12/12/3
f 156/13/4 150/14/4 4/15/4 101/16/4
f 165/17/5 163/18/5 3/19/5 11/20/5
f 103/21/6 102/22/6 1/23/6 9/24/6
f 104/25/6 103/21/6 9/24/6 13/26/6
f 149/27/5 148/28/5 11/29/5 14/30/5
f 138/31/7 137/32/7 12/12/7 15/33/7
f 121/34/8 120/5/8 10/8/8 16/35/8
f 124/36/9 121/34/9 16/35/9 70/37/9
f 143/38/10 138/31/10 15/33/10 69/39/10
f 154/40/5 149/27/5 14/30/5 68/41/5
f 106/42/6 104/25/6 13/26/6 67/43/6
f 83/44/11 18/45/11 133/46/11 97/47/11
f 126/48/12 5/49/12 94/50/12 129/51/12
f 108/52/13 3/53/13 92/54/13 111/55/13
f 168/56/14 7/57/14 90/58/14 169/59/14
f 54/60/15 44/61/15 22/62/15
f 50/63/16 27/64/16 22/62/16 44/61/16
f 49/65/17 28/66/17 87/67/17
f 53/68/18 46/69/18 23/70/18
f 62/71/19 59/72/19 23/70/19 46/69/19
f 61/73/20 60/74/20 88/75/20
f 52/76/17 30/77/17 26/78/17 47/79/17
f 51/80/16 29/81/16 25/82/16 48/83/16
f 47/79/17 26/78/17 28/66/17 49/65/17
f 48/83/16 25/82/16 27/64/16 50/63/16
f 37/84/21 165/85/21 11/86/21 29/81/21
f 35/87/17 30/77/17 52/76/17
f 45/88/22 53/68/22 23/70/22
f 43/89/23 54/60/23 22/62/23
f 21/90/24 54/91/24 43/92/24
f 24/93/25 53/94/25 45/88/25
f 11/95/26 148/96/26 35/97/26 29/98/26
f 9/99/27 158/100/27 37/101/27 30/77/27
f 26/78/28 48/102/28 50/103/28 28/66/28
f 25/82/29 47/104/29 49/105/29 27/64/29
f 30/77/28 51/106/28 48/102/28 26/78/28
f 29/81/29 52/107/29 47/104/29 25/82/29
f 59/72/30 61/108/30 88/75/30
f 60/74/31 62/109/31 46/110/31 24/93/31
f 24/93/32 46/110/32 53/94/32
f 27/64/29 87/111/29 22/62/29
f 28/66/28 50/103/28 44/112/28 21/90/28
f 21/90/33 44/112/33 54/91/33
f 173/10/34 33/113/34 93/114/34 174/115/34
f 100/116/35 134/117/35 20/118/35 83/119/35
f 142/120/36 141/121/36 40/122/36 71/123/36
f 153/124/34 152/125/34 39/126/34 72/127/34
f 152/125/34 151/128/34 36/129/34 39/126/34
f 141/121/36 140/130/36 35/131/36 40/122/36
f 158/132/36 159/1/36 32/133/36 37/134/36
f 145/135/37 136/136/37 34/137/37 112/138/37
f 170/139/34 168/56/34 33/113/34 38/140/34
f 163/18/36 32/133/36 91/141/36 164/142/36
f 64/143/31 66/144/31 58/145/31 56/146/31
f 63/147/30 65/148/30 57/149/30 55/150/30
f 65/151/20 64/143/20 56/146/20 57/152/20
f 66/153/19 63/147/19 55/150/19 58/154/19
f 56/146/31 58/145/31 62/109/31 60/74/31
f 55/150/30 57/149/30 61/108/30 59/72/30
f 57/152/20 56/146/20 60/74/20 61/73/20
f 58/154/19 55/150/19 59/72/19 62/71/19
f 38/155/38 175/156/38 12/157/38 63/147/38
f 36/158/39 151/159/39 10/160/39 64/143/39
f 12/157/40 137/161/40 36/158/40 63/147/40
f 10/160/41 170/162/41 38/163/41 64/143/41
f 30/164/42 35/165/42 140/166/42 9/167/42
f 30/77/28 37/101/28 51/106/28
f 29/81/29 35/168/29 52/107/29
f 29/81/16 51/80/16 37/84/16
f 147/169/34 153/124/34 72/127/34 31/170/34
f 63/147/30 36/158/30 65/148/30
f 63/147/19 66/153/19 38/155/19
f 64/143/20 65/151/20 36/158/20
f 64/143/31 38/163/31 66/144/31
f 136/171/36 142/120/36 71/123/36 34/172/36
f 107/173/6 106/42/6 67/43/6 2/174/6
f 150/175/5 154/40/5 68/41/5 4/176/5
f 139/177/10 143/38/10 69/39/10 6/178/10
f 125/179/9 124/36/9 70/37/9 8/180/9
f 101/181/43 113/182/43 86/183/43 75/184/43
f 118/185/44 130/186/44 85/187/44 73/188/44
f 146/189/45 144/190/45 84/191/45 123/192/45
f 19/193/46 83/194/46 98/195/46 162/196/46
f 119/6/43 74/197/43 89/198/43 122/199/43
f 102/22/47 76/200/47 95/201/47 105/202/47
f 98/195/46 83/194/46 17/203/46 167/204/46
f 130/205/47 128/206/47 80/207/47
f 113/182/43 110/208/43 79/209/43 86/183/43
f 110/208/43 109/210/43 78/211/43 79/209/43
f 128/206/47 127/212/47 77/213/47 80/207/47
f 127/212/47 126/48/47 76/200/47 77/213/47
f 157/214/48 155/215/48 75/216/48 125/217/48
f 109/210/43 108/52/43 74/197/43 78/211/43
f 87/67/17 21/90/17 43/92/17
f 22/62/29 87/111/29 43/89/29
f 87/67/17 28/66/17 21/90/17
f 87/111/29 27/64/29 49/105/29
f 23/70/30 88/75/30 45/88/30
f 88/75/30 23/70/30 59/72/30
f 88/75/20 24/93/20 45/88/20
f 24/93/20 88/75/20 60/74/20
f 131/218/43 90/219/43 122/220/43
f 166/221/43 92/222/43 164/223/43
f 176/224/43 94/225/43 174/226/43
f 114/227/43 96/228/43 105/229/43
f 161/230/43 41/231/43 91/232/43 160/233/43
f 171/234/43 42/235/43 93/236/43 169/237/43
f 115/238/43 81/239/43 89/240/43 111/241/43
f 132/242/43 82/243/43 95/244/43 129/245/43
f 133/46/49 18/45/49 90/246/49 131/247/49
f 167/204/50 17/203/50 92/248/50 166/249/50
f 177/250/51 20/251/51 94/252/51 176/253/51
f 116/254/52 19/255/52 96/256/52 114/257/52
f 162/196/53 98/195/53 41/258/53 161/259/53
f 172/260/54 99/261/54 42/262/54 171/263/54
f 117/264/55 97/47/55 81/265/55 115/266/55
f 134/117/56 100/116/56 82/267/56 132/268/56
f 83/119/35 19/255/35 116/254/35 100/116/35
f 18/269/57 83/270/57 99/261/57 172/260/57
f 83/270/57 20/251/57 177/250/57 99/261/57
f 17/271/11 83/44/11 97/47/11 117/264/11
f 17/271/58 117/264/58 115/266/58 92/272/58
f 100/116/56 116/254/56 114/257/56 82/267/56
f 92/222/43 115/238/43 111/241/43
f 82/243/43 114/227/43 105/229/43 95/244/43
f 11/273/13 3/53/13 108/52/13 109/210/13
f 14/274/13 11/273/13 109/210/13 110/208/13
f 68/275/13 14/274/13 110/208/13 113/182/13
f 1/23/6 102/22/6 105/202/6 96/276/6
f 4/277/13 68/275/13 113/182/13 101/181/13
f 73/278/59 85/279/59 106/280/59 107/281/59
f 73/282/60 107/283/60 135/284/60
f 74/197/43 108/52/43 111/55/43 89/198/43
f 85/279/61 80/285/61 106/280/61
f 80/207/47 77/213/47 103/21/47 104/25/47
f 77/213/47 76/200/47 102/22/47 103/21/47
f 155/215/48 156/13/48 101/16/48 75/216/48
f 20/118/62 134/117/62 132/268/62 94/286/62
f 97/47/55 133/46/55 131/247/55 81/265/55
f 94/225/43 132/242/43 129/245/43
f 81/239/43 131/218/43 122/220/43 89/240/43
f 147/287/63 157/214/63 125/217/63 8/288/63
f 12/289/64 5/49/64 126/48/64 127/212/64
f 15/290/65 12/289/65 127/212/65 128/206/65
f 69/291/12 15/290/12 128/206/12 130/205/12
f 7/7/9 119/6/9 122/199/9 90/292/9
f 139/177/66 146/293/66 123/294/66 31/170/66
f 6/295/12 69/291/12 130/205/12 118/296/12
f 75/184/43 86/183/43 124/36/43 125/179/43
f 76/200/47 126/48/47 129/51/47 95/201/47
f 86/183/43 79/209/43 121/34/43 124/36/43
f 79/209/43 78/211/43 120/5/43 121/34/43
f 78/211/43 74/197/43 119/6/43 120/5/43
f 106/42/47 80/207/47 104/25/47
f 80/297/67 85/187/67 130/186/67
f 135/284/68 107/283/68 145/135/68 144/190/68
f 144/190/69 145/135/69 112/138/69 84/191/69
f 135/284/60 118/298/60 73/282/60
f 6/299/70 118/298/70 146/189/70 139/300/70
f 118/298/68 135/284/68 144/190/68 146/189/68
f 31/170/34 72/127/34 143/38/34 139/177/34
f 2/301/1 67/302/1 142/120/1 136/171/1
f 107/283/71 2/303/71 136/136/71 145/135/71
f 13/304/1 9/305/1 140/130/1 141/121/1
f 67/302/1 13/304/1 141/121/1 142/120/1
f 72/127/34 39/126/34 138/31/34 143/38/34
f 39/126/34 36/129/34 137/32/34 138/31/34
f 31/170/66 123/294/66 157/306/66 147/169/66
f 84/191/72 112/138/72 156/13/72 155/215/72
f 123/192/73 84/191/73 155/215/73 157/214/73
f 34/172/36 71/123/36 154/40/36 150/175/36
f 8/307/14 70/308/14 153/124/14 147/169/14
f 16/309/74 10/310/74 151/128/74 152/125/74
f 70/308/14 16/309/14 152/125/14 153/124/14
f 71/123/36 40/122/36 149/27/36 154/40/36
f 40/122/36 35/131/36 148/28/36 149/27/36
f 112/138/37 34/137/37 150/14/37 156/13/37
f 19/193/75 162/196/75 161/259/75 96/311/75
f 96/228/43 161/230/43 160/233/43
f 9/312/1 1/2/1 159/1/1 158/132/1
f 32/133/36 159/1/36 160/4/36 91/141/36
f 98/195/53 167/204/53 166/249/53 41/258/53
f 41/231/43 166/221/43 164/223/43 91/232/43
f 3/19/5 163/18/5 164/142/5 92/313/5
f 37/134/36 32/133/36 163/18/36 165/17/36
f 18/269/76 172/260/76 171/263/76 90/314/76
f 90/219/43 171/234/43 169/237/43
f 10/310/77 7/57/77 168/56/77 170/139/77
f 33/113/34 168/56/34 169/59/34 93/114/34
f 99/261/54 177/250/54 176/253/54 42/262/54
f 42/235/43 176/224/43 174/226/43 93/236/43
f 5/11/10 173/10/10 174/115/10 94/315/10
f 38/140/34 33/113/34 173/10/34 175/9/34
